PathFileType  4	(X/Y/Z) /dataNAS/people/anoopai/OpenCap/opencap-core/Examples/Data/d712a0c6-d1a0-423f-8dc2-b78d41b5c55e/MarkerData/PreAugmentation
DataRate	CameraRate	NumFrames	NumMarkers	Units	OrigDataRate	OrigDataStartFrame	OrigNumFrames
60.0	60.0	14	20	m	60.0	1	43
Frame#	Time	Neck			RShoulder			RElbow			RWrist			LShoulder			LElbow			LWrist			midHip			RHip			RKnee			RAnkle			LHip			LKnee			LAnkle			LBigToe			LSmallToe			LHeel			RBigToe			RSmallToe			RHeel			
		X1	Y1	Z1	X2	Y2	Z2	X3	Y3	Z3	X4	Y4	Z4	X5	Y5	Z5	X6	Y6	Z6	X7	Y7	Z7	X8	Y8	Z8	X9	Y9	Z9	X10	Y10	Z10	X11	Y11	Z11	X12	Y12	Z12	X13	Y13	Z13	X14	Y14	Z14	X15	Y15	Z15	X16	Y16	Z16	X17	Y17	Z17	X18	Y18	Z18	X19	Y19	Z19	X20	Y20	Z20	

1	0.0000000	0.1829400	1.3059400	-0.1493900	0.2794600	1.3030900	0.0213600	0.3325600	1.0101400	0.1153200	0.4005200	0.7105500	0.1484000	0.0969200	1.3061300	-0.3270800	0.0386700	0.9809600	-0.3987700	0.0510500	0.6673300	-0.4235500	0.2136400	0.7165900	-0.1489400	0.2826800	0.7307100	-0.0189000	0.2119100	0.2738900	0.0184600	0.1324400	-0.1709700	0.0234200	0.1508500	0.7025500	-0.2860000	0.0526900	0.2580200	-0.2797600	-0.0422900	-0.1937600	-0.2897100	0.0960800	-0.2715100	-0.3879900	0.0895700	-0.2693700	-0.3850800	-0.0699200	-0.2284200	-0.2676200	0.3254100	-0.2401300	0.0165600	0.3204800	-0.2378100	0.0182500	0.1012100	-0.2029400	0.0192100
2	0.0166667	0.1831900	1.3055200	-0.1496000	0.2774500	1.3024800	0.0220100	0.3285300	1.0080200	0.1153900	0.3941700	0.7080000	0.1481400	0.0992900	1.3063700	-0.3283200	0.0452600	0.9806800	-0.3998500	0.0581000	0.6680800	-0.4203800	0.2152800	0.7129900	-0.1474300	0.2824100	0.7272900	-0.0178500	0.2061300	0.2721200	0.0189400	0.1318700	-0.1705600	0.0231200	0.1545800	0.6986200	-0.2842900	0.0506200	0.2573700	-0.2808700	-0.0426500	-0.1938000	-0.2903200	0.0943100	-0.2718300	-0.3859500	0.0877400	-0.2696700	-0.3832500	-0.0699300	-0.2281000	-0.2689900	0.3251500	-0.2394400	0.0165800	0.3202000	-0.2371500	0.0183200	0.1011100	-0.2029500	0.0185100
3	0.0333333	0.1834000	1.3050400	-0.1492000	0.2754000	1.3020200	0.0225400	0.3244100	1.0067200	0.1151500	0.3877000	0.7063100	0.1467300	0.1020900	1.3060400	-0.3277800	0.0512700	0.9803900	-0.4006300	0.0667200	0.6682700	-0.4204900	0.2169100	0.7093200	-0.1467800	0.2822200	0.7236300	-0.0169500	0.2006800	0.2704600	0.0195600	0.1312500	-0.1699200	0.0229000	0.1573500	0.6951900	-0.2826300	0.0478900	0.2567300	-0.2816800	-0.0429600	-0.1939200	-0.2903800	0.0936900	-0.2712200	-0.3833800	0.0870500	-0.2689900	-0.3805000	-0.0700500	-0.2280600	-0.2691200	0.3247400	-0.2388500	0.0166400	0.3197700	-0.2365500	0.0184100	0.1008800	-0.2022900	0.0176400
4	0.0500000	0.1830000	1.3052700	-0.1491300	0.2734400	1.3011800	0.0231200	0.3201900	1.0040200	0.1151300	0.3810800	0.7033800	0.1459600	0.1033600	1.3065100	-0.3279600	0.0587500	0.9793700	-0.4017300	0.0789800	0.6678300	-0.4212600	0.2172900	0.7067000	-0.1454700	0.2809100	0.7211500	-0.0162600	0.1954700	0.2690900	0.0204700	0.1307900	-0.1695400	0.0227200	0.1603700	0.6917200	-0.2819900	0.0443500	0.2560800	-0.2816400	-0.0432300	-0.1939500	-0.2911500	0.0928500	-0.2714200	-0.3824100	0.0861400	-0.2692100	-0.3796500	-0.0703200	-0.2281000	-0.2702700	0.3242800	-0.2384400	0.0167700	0.3192900	-0.2361100	0.0185400	0.1008600	-0.2019400	0.0168400
5	0.0666667	0.1829000	1.3048400	-0.1492800	0.2712800	1.3008500	0.0234600	0.3159400	1.0016400	0.1148600	0.3744500	0.7004300	0.1447800	0.1054500	1.3059800	-0.3282900	0.0662100	0.9783400	-0.4007600	0.0888700	0.6675700	-0.4204700	0.2177000	0.7040700	-0.1450200	0.2795500	0.7185900	-0.0158300	0.1910900	0.2678400	0.0211800	0.1303100	-0.1687900	0.0226500	0.1613100	0.6898900	-0.2802100	0.0414500	0.2551300	-0.2812100	-0.0434300	-0.1941400	-0.2906300	0.0923200	-0.2712000	-0.3801300	0.0855700	-0.2689900	-0.3773200	-0.0705200	-0.2283600	-0.2698100	0.3237400	-0.2380900	0.0169600	0.3187500	-0.2357600	0.0187300	0.1009300	-0.2016100	0.0161800
6	0.0833333	0.1827500	1.3042800	-0.1493200	0.2691200	1.3002600	0.0238200	0.3116600	0.9993500	0.1143400	0.3678700	0.6983200	0.1433700	0.1071200	1.3054800	-0.3294900	0.0749200	0.9766200	-0.4011000	0.1010100	0.6672500	-0.4180500	0.2182700	0.7017300	-0.1439700	0.2779800	0.7161100	-0.0154500	0.1874500	0.2667600	0.0219400	0.1299200	-0.1681600	0.0227000	0.1646300	0.6874500	-0.2792000	0.0381100	0.2540100	-0.2810300	-0.0436100	-0.1943300	-0.2905500	0.0924800	-0.2710300	-0.3797200	0.0856800	-0.2688800	-0.3769500	-0.0704600	-0.2284400	-0.2696600	0.3232600	-0.2379700	0.0171800	0.3182600	-0.2356100	0.0189300	0.1009700	-0.2010100	0.0156500
7	0.1000000	0.1826200	1.3035200	-0.1497700	0.2667900	1.2999200	0.0239700	0.3076500	0.9957800	0.1140900	0.3613800	0.6961700	0.1416500	0.1090300	1.3046100	-0.3303700	0.0833700	0.9747800	-0.4015900	0.1108200	0.6669300	-0.4157600	0.2178300	0.6997400	-0.1444100	0.2761900	0.7137200	-0.0156100	0.1845300	0.2658400	0.0229100	0.1294700	-0.1674800	0.0229200	0.1649900	0.6859400	-0.2795400	0.0344400	0.2527200	-0.2813600	-0.0438400	-0.1947000	-0.2901700	0.0915700	-0.2718600	-0.3786300	0.0846800	-0.2697600	-0.3756300	-0.0705800	-0.2287600	-0.2693400	0.3226900	-0.2377400	0.0174300	0.3176800	-0.2353800	0.0192000	0.1010500	-0.2003800	0.0152600
8	0.1166667	0.1825100	1.3026400	-0.1496500	0.2645300	1.2990800	0.0242900	0.3037300	0.9924300	0.1135900	0.3551700	0.6927600	0.1401300	0.1111000	1.3035600	-0.3302400	0.0928600	0.9727000	-0.4013800	0.1220100	0.6664700	-0.4138800	0.2175300	0.6977700	-0.1451100	0.2744300	0.7113200	-0.0161000	0.1821200	0.2653000	0.0236000	0.1292200	-0.1671500	0.0231400	0.1652600	0.6850300	-0.2795400	0.0310100	0.2513400	-0.2809500	-0.0439800	-0.1950900	-0.2896100	0.0920500	-0.2719800	-0.3795700	0.0852900	-0.2698500	-0.3769200	-0.0707800	-0.2292300	-0.2689100	0.3223700	-0.2379500	0.0176500	0.3174000	-0.2356600	0.0194600	0.1011400	-0.2001000	0.0150700
9	0.1333333	0.1828000	1.3011600	-0.1491800	0.2619800	1.2989000	0.0244800	0.2996300	0.9905600	0.1124600	0.3490500	0.6908200	0.1383000	0.1137200	1.3021100	-0.3301500	0.1000100	0.9711800	-0.4012300	0.1310300	0.6665200	-0.4104300	0.2153200	0.6970800	-0.1460400	0.2714300	0.7105400	-0.0170500	0.1803900	0.2649400	0.0244900	0.1288300	-0.1666400	0.0234700	0.1639300	0.6848200	-0.2799300	0.0276600	0.2500400	-0.2796500	-0.0440500	-0.1955000	-0.2888800	0.0923400	-0.2716000	-0.3785700	0.0856400	-0.2694500	-0.3758500	-0.0707900	-0.2296200	-0.2679600	0.3220800	-0.2378300	0.0178600	0.3171000	-0.2355100	0.0196500	0.1007800	-0.1988800	0.0150600
10	0.1500000	0.1828400	1.3000500	-0.1491700	0.2600200	1.2966500	0.0250500	0.2961100	0.9870600	0.1117400	0.3434000	0.6866900	0.1367500	0.1149800	1.3017400	-0.3305100	0.1074800	0.9699200	-0.3996700	0.1414400	0.6667300	-0.4074200	0.2135800	0.6966000	-0.1467600	0.2689000	0.7098800	-0.0178600	0.1791800	0.2649200	0.0250700	0.1285900	-0.1663400	0.0237500	0.1625900	0.6848500	-0.2805900	0.0240200	0.2489400	-0.2787200	-0.0441500	-0.1959600	-0.2885200	0.0924300	-0.2722800	-0.3801500	0.0856800	-0.2701700	-0.3773800	-0.0710000	-0.2302100	-0.2673300	0.3222500	-0.2382500	0.0179800	0.3173200	-0.2359100	0.0197300	0.1005200	-0.1981100	0.0151600
11	0.1666667	0.1822700	1.2998400	-0.1496900	0.2572800	1.2968300	0.0252000	0.2922100	0.9856300	0.1102400	0.3377400	0.6844000	0.1349200	0.1168900	1.3010200	-0.3311700	0.1146700	0.9687800	-0.3995000	0.1534400	0.6674700	-0.4033600	0.2111500	0.6966500	-0.1484400	0.2668800	0.7095100	-0.0190500	0.1784900	0.2650800	0.0258600	0.1282500	-0.1660000	0.0240900	0.1598300	0.6853600	-0.2820000	0.0211800	0.2480300	-0.2775100	-0.0441100	-0.1963300	-0.2881900	0.0927700	-0.2720700	-0.3800800	0.0860600	-0.2699500	-0.3772300	-0.0710000	-0.2306100	-0.2671200	0.3221000	-0.2380300	0.0181400	0.3171900	-0.2357400	0.0199500	0.1002600	-0.1978600	0.0154200
12	0.1833333	0.1818700	1.2995200	-0.1499200	0.2545400	1.2968500	0.0250000	0.2888300	0.9834300	0.1089200	0.3320500	0.6828900	0.1330100	0.1188400	1.3004800	-0.3311500	0.1212800	0.9683000	-0.3980300	0.1640300	0.6685000	-0.4010500	0.2089200	0.6976500	-0.1490300	0.2650900	0.7102800	-0.0195700	0.1781100	0.2655200	0.0266100	0.1279000	-0.1657400	0.0244400	0.1579400	0.6855600	-0.2848000	0.0188200	0.2474600	-0.2760600	-0.0443400	-0.1969000	-0.2879400	0.0933000	-0.2719500	-0.3807800	0.0866400	-0.2698400	-0.3780600	-0.0712600	-0.2311600	-0.2668300	0.3224400	-0.2383700	0.0181700	0.3175800	-0.2361100	0.0199900	0.1000900	-0.1979300	0.0157700
13	0.2000000	0.1814300	1.2994400	-0.1498100	0.2520200	1.2961200	0.0244100	0.2851000	0.9831100	0.1074300	0.3263000	0.6814400	0.1311300	0.1200900	1.3006700	-0.3309900	0.1265100	0.9682200	-0.3981600	0.1741100	0.6703200	-0.3976400	0.2092800	0.6978500	-0.1501300	0.2648700	0.7105000	-0.0204300	0.1778500	0.2663400	0.0271300	0.1276800	-0.1658700	0.0248200	0.1581100	0.6866900	-0.2849200	0.0167800	0.2472800	-0.2743800	-0.0445500	-0.1973900	-0.2874400	0.0934300	-0.2718700	-0.3805600	0.0868800	-0.2696100	-0.3775700	-0.0715400	-0.2316800	-0.2659500	0.3227600	-0.2385700	0.0181500	0.3179100	-0.2362800	0.0199600	0.0992000	-0.1966200	0.0162300
14	0.2166667	0.1809700	1.2994700	-0.1503700	0.2493200	1.2960900	0.0241200	0.2816200	0.9828100	0.1054500	0.3202900	0.6802400	0.1292500	0.1215800	1.3007900	-0.3315700	0.1316400	0.9688200	-0.3958800	0.1854800	0.6725500	-0.3935300	0.2079200	0.6996000	-0.1506300	0.2643500	0.7122600	-0.0205800	0.1779500	0.2670200	0.0276500	0.1273300	-0.1657500	0.0251600	0.1561200	0.6880900	-0.2867400	0.0163900	0.2471000	-0.2734200	-0.0445900	-0.1976700	-0.2875800	0.0941500	-0.2715000	-0.3809600	0.0874100	-0.2694500	-0.3780600	-0.0720200	-0.2322200	-0.2659400	0.3230600	-0.2387600	0.0181100	0.3182400	-0.2364800	0.0199300	0.0989800	-0.1970800	0.0166800
